<svg width="60" height="60" viewBox="0 0 60 60" fill="none" xmlns="http://www.w3.org/2000/svg">
<g clip-path="url(#clip0)">
<rect width="60" height="60" rx="18" fill="#FBBF24"/>
<path d="M0.670166 -2.43325H5.36766V5.94749C5.36766 6.83717 5.29648 8.61652 5.15413 11.2856H5.26089L13.0411 -2.43325H19.5535V17.0773H14.8827V8.91012C14.8827 7.67347 14.9628 5.82294 15.123 3.35854H15.0162L7.16925 17.0773H0.670166V-2.43325Z" fill="white"/>
<path d="M37.8497 2.13078C37.8497 4.70195 36.3195 6.24998 33.259 6.77489V6.88165C35.0206 7.0329 36.3506 7.50443 37.2492 8.29624C38.1478 9.08805 38.5971 10.1557 38.5971 11.4991C38.5971 12.6734 38.2679 13.7055 37.6095 14.5951C36.96 15.4759 36.017 16.1565 34.7803 16.637C33.5437 17.1085 32.0802 17.3442 30.3898 17.3442C27.2848 17.3442 24.8071 16.9928 22.9565 16.29V11.7526C23.7128 12.1352 24.6736 12.4466 25.8391 12.6868C27.0135 12.9181 28.0766 13.0338 29.0286 13.0338C30.5321 13.0338 31.5998 12.8781 32.2314 12.5667C32.8631 12.2553 33.1789 11.7348 33.1789 11.0053C33.1789 9.69748 31.6843 9.04357 28.695 9.04357H26.3996V4.77312H28.4547C29.4868 4.77312 30.2919 4.72419 30.8702 4.62633C31.4574 4.51956 31.8844 4.35053 32.1514 4.11921C32.4183 3.88789 32.5517 3.54092 32.5517 3.07829C32.5517 2.09965 31.6131 1.61032 29.7359 1.61032C27.9654 1.61032 26.4085 2.06406 25.0651 2.97153L22.8498 -0.65835C24.0153 -1.40568 25.1985 -1.93503 26.3996 -2.24642C27.6007 -2.55781 29.0508 -2.7135 30.7501 -2.7135C32.8942 -2.7135 34.6113 -2.26866 35.9013 -1.37899C37.2003 -0.489311 37.8497 0.680613 37.8497 2.13078Z" fill="white"/>
<path d="M57.9742 17.0773H52.6628V1.87723H47.2847V17.0773H41.9867V-2.43325H57.9742V17.0773Z" fill="white"/>
<path d="M12.3669 52.6646C12.3669 55.9475 11.5618 58.443 9.95146 60.1512C8.34114 61.8594 5.9835 62.7135 2.87853 62.7135C-0.181954 62.7135 -2.5307 61.8549 -4.1677 60.1379C-5.79581 58.4208 -6.60986 55.9208 -6.60986 52.6379C-6.60986 49.3906 -5.80026 46.9128 -4.18105 45.2046C-2.55294 43.4876 -0.190851 42.629 2.90522 42.629C6.01019 42.629 8.36339 43.4787 9.9648 45.178C11.5662 46.8772 12.3669 49.3728 12.3669 52.6646ZM-1.05828 52.6646C-1.05828 56.4368 0.253988 58.3229 2.87853 58.3229C4.21305 58.3229 5.20059 57.8647 5.84115 56.9484C6.49062 56.032 6.81535 54.6041 6.81535 52.6646C6.81535 50.7162 6.48617 49.2794 5.82781 48.3541C5.17834 47.4199 4.20415 46.9529 2.90522 46.9529C0.262884 46.9529 -1.05828 48.8568 -1.05828 52.6646Z" fill="white"/>
<path d="M19.8536 52.2509L14.1685 42.936H19.8536L25.2583 52.3843V42.936H30.3428V52.3843L35.7877 42.936H41.4727L35.7343 52.2509L41.9264 62.4466H36.1079L30.3428 52.5578V62.4466H25.2583V52.5578L19.4932 62.4466H13.6748L19.8536 52.2509Z" fill="white"/>
<path d="M55.9121 62.4466L54.9513 58.79H48.6123L47.6248 62.4466H41.833L48.1986 42.8559H55.2315L61.6772 62.4466H55.9121ZM53.857 54.4662L53.0162 51.2633C52.8205 50.5516 52.5803 49.6308 52.2956 48.5009C52.0198 47.371 51.8374 46.5614 51.7484 46.0721C51.6684 46.5258 51.5082 47.2731 51.268 48.3141C51.0367 49.355 50.5162 51.4057 49.7066 54.4662H53.857Z" fill="white"/>
<path fill-rule="evenodd" clip-rule="evenodd" d="M19.69 36.5528C21.3003 34.8446 22.1055 32.3491 22.1055 29.0662C22.1055 25.7744 21.3047 23.2788 19.7033 21.5796C18.1019 19.8803 15.7487 19.0306 12.6437 19.0306C9.54767 19.0306 7.18559 19.8892 5.55748 21.6063C3.93827 23.3144 3.12866 25.7922 3.12866 29.0395C3.12866 32.3224 3.94272 34.8224 5.57082 36.5395C7.20783 38.2565 9.55657 39.1151 12.6171 39.1151C15.722 39.1151 18.0797 38.261 19.69 36.5528ZM12.6171 34.7245C9.99251 34.7245 8.68024 32.8384 8.68024 29.0662C8.68024 25.2584 10.0014 23.3545 12.6437 23.3545C13.9427 23.3545 14.9169 23.8215 15.5663 24.7557C16.2247 25.681 16.5539 27.1178 16.5539 29.0662C16.5539 31.0057 16.2291 32.4336 15.5797 33.35C14.9391 34.2663 13.9516 34.7245 12.6171 34.7245ZM45.2726 41.2178H40.1347V38.8482H28.7647V41.2178H23.6268V34.5243H25.2416C26.407 32.5493 27.3679 30.2672 28.1241 27.6783C28.8803 25.0804 29.3697 22.3002 29.5921 19.3376H42.6036V34.5243H45.2726V41.2178ZM37.2922 23.6481V34.5243H30.8198C32.4568 31.0813 33.4577 27.4559 33.8225 23.6481H37.2922ZM59.3117 38.8482H64.6097V19.3376H59.3117V26.5706H53.1863V19.3376H47.8883V38.8482H53.1863V30.8945H59.3117V38.8482Z" fill="white"/>
</g>
<defs>
<clipPath id="clip0">
<rect width="60" height="60" rx="18" fill="white"/>
</clipPath>
</defs>
</svg>
